<svg xmlns="http://www.w3.org/2000/svg" version="1.1" xmlns:xlink="http://www.w3.org/1999/xlink" xmlns:svgjs="http://svgjs.dev/svgjs" width="1920" height="1080" preserveAspectRatio="none" viewBox="0 0 1920 1080"><g mask="url(&quot;#SvgjsMask1208&quot;)" fill="none"><rect width="1920" height="1080" x="0" y="0" fill="rgba(34, 40, 49, 1)"></rect><path d="M0,682.091C130.794,711.765,287.869,691.828,385.546,599.921C482.359,508.826,444.903,348.619,488.037,222.879C525.554,113.513,624.986,26.15,622.024,-89.434C618.948,-209.483,555.99,-323.177,471.849,-408.859C390.334,-491.868,278.391,-538.837,163.393,-556.466C57.207,-572.745,-43.115,-527.328,-147.951,-503.875C-261.235,-478.532,-382.111,-480.254,-476.889,-413.227C-585.574,-336.365,-700.918,-235.174,-715.067,-102.811C-729.192,29.331,-629.372,145.256,-547.803,250.173C-479.612,337.883,-374.666,378.452,-287.423,447.239C-188.258,525.426,-123.151,654.151,0,682.091" fill="#1c2028"></path><path d="M1920 1766.29C2054.352 1773.292 2184.588 1738.551 2306.057 1680.717 2440.779 1616.5729999999999 2608.016 1557.375 2655.726 1415.995 2703.673 1273.911 2564.743 1138.725 2538.7960000000003 991.031 2514.006 849.922 2577.0789999999997 696.231 2507.297 571.104 2432.526 437.03 2297.008 340.828 2150.543 294.84299999999996 2002.756 248.44299999999998 1836.55 251.71400000000006 1695.76 316.307 1562.666 377.369 1491.3310000000001 515.832 1407.368 635.802 1331.7350000000001 743.871 1247.856 850.108 1230.646 980.886 1213.54 1110.876 1254.065 1240.063 1312.397 1357.483 1369.3609999999999 1472.1480000000001 1452.738 1570.306 1558.967 1641.779 1666.77 1714.3110000000001 1790.244 1759.527 1920 1766.29" fill="#29303a"></path></g><defs><mask id="SvgjsMask1208"><rect width="1920" height="1080" fill="#ffffff"></rect></mask></defs></svg>